<?xml version="1.0" standalone="no"?>
<!DOCTYPE svg PUBLIC "-//W3C//DTD SVG 20010904//EN"
 "http://www.w3.org/TR/2001/REC-SVG-20010904/DTD/svg10.dtd">
<svg version="1.0" xmlns="http://www.w3.org/2000/svg"
 width="900.000000pt" height="780.000000pt" viewBox="0 0 900.000000 780.000000"
 preserveAspectRatio="xMidYMid meet">

<g transform="translate(0.000000,780.000000) scale(0.100000,-0.100000)"
fill="#000000" stroke="none">
<path d="M2997 6783 c-122 -291 -371 -923 -558 -1421 -110 -292 -114 -317 -83
-452 l15 -69 -326 -778 c-180 -428 -369 -878 -421 -1000 -52 -122 -94 -226
-94 -231 0 -11 87 -64 445 -269 395 -227 495 -283 680 -383 114 -61 186 -106
217 -137 70 -69 143 -176 259 -378 56 -99 112 -191 123 -204 27 -31 186 -137
361 -241 77 -45 162 -96 188 -112 l49 -29 -7 32 c-4 18 -47 174 -95 348 -48
174 -156 565 -241 869 -84 304 -156 549 -160 545 -4 -5 -46 -100 -94 -213 -48
-113 -90 -209 -94 -213 -7 -7 -202 98 -648 350 -73 41 -133 78 -133 84 0 5 39
55 88 111 135 159 175 209 171 212 -11 11 -120 71 -238 131 -73 38 -140 79
-147 91 -13 19 -11 30 15 100 47 129 117 288 205 470 188 386 388 689 570 862
l76 72 -101 118 c-114 131 -159 195 -159 228 0 54 295 864 314 864 3 0 24 -28
49 -62 25 -35 92 -110 149 -168 245 -246 309 -364 295 -552 -3 -48 -1 -68 7
-68 19 0 174 -78 211 -106 79 -60 119 -158 179 -434 19 -91 53 -246 75 -345
22 -99 69 -316 105 -482 137 -628 176 -800 194 -858 l19 -60 13 30 c15 37 51
196 245 1090 85 391 162 739 171 775 43 179 157 316 305 365 54 18 48 4 78
193 22 140 12 123 201 353 166 202 295 348 301 341 4 -4 34 -96 68 -204 34
-109 80 -241 102 -295 79 -189 91 -237 87 -343 -5 -120 -32 -177 -127 -269
-36 -36 -74 -76 -83 -90 l-17 -25 111 -105 c255 -243 383 -463 629 -1079 60
-150 109 -279 109 -285 0 -7 -82 -66 -181 -131 -99 -66 -182 -123 -185 -127
-3 -5 53 -76 123 -159 70 -83 129 -155 131 -159 2 -7 -767 -441 -781 -441 -3
0 -42 90 -87 200 -46 110 -86 200 -89 200 -7 0 -27 -62 -177 -568 -160 -540
-336 -1163 -330 -1169 7 -7 271 137 373 203 159 103 203 158 383 484 56 102
107 191 113 198 15 19 84 58 607 345 792 434 830 456 830 485 0 34 -140 379
-447 1102 -86 201 -200 471 -255 600 l-99 235 22 148 c20 128 21 153 10 185
-35 97 -203 532 -326 842 -75 190 -181 461 -235 602 -55 142 -109 276 -121
299 -20 40 -21 41 -38 23 -10 -11 -112 -122 -227 -248 -115 -127 -251 -275
-302 -330 -52 -56 -145 -165 -208 -243 -168 -209 -258 -281 -394 -314 -67 -17
-309 -18 -496 -3 -167 14 -223 37 -307 127 -219 233 -845 956 -890 1029 -7 10
-15 18 -18 18 -4 0 -27 -48 -52 -107z"/>
<path d="M3160 3750 c0 -13 129 -369 145 -400 29 -56 70 -80 236 -139 250 -90
319 -125 414 -212 25 -23 45 -38 45 -33 0 5 -27 120 -58 256 -46 195 -63 253
-82 273 -12 13 -57 37 -99 53 -109 42 -587 212 -595 212 -3 0 -6 -4 -6 -10z"/>
<path d="M5720 3745 c-19 -8 -156 -57 -305 -110 -339 -121 -333 -119 -355
-169 -16 -36 -120 -469 -120 -497 0 -6 28 15 63 46 76 70 185 124 403 200 187
65 205 80 249 190 26 68 125 345 125 352 0 7 -26 2 -60 -12z"/>
<path d="M4020 1628 c1 -179 135 -404 292 -489 57 -31 71 -34 143 -34 68 0 89
4 140 29 122 60 242 215 278 361 19 75 31 175 21 175 -4 0 -56 -47 -115 -105
-143 -139 -185 -160 -324 -160 -133 0 -167 17 -312 157 -61 59 -114 108 -117
108 -3 0 -6 -19 -6 -42z"/>
</g>
</svg>
